<svg xmlns="http://www.w3.org/2000/svg" width="311" height="202" viewBox="0 0 311 202">
  <g id="Group_70" data-name="Group 70" transform="translate(-284 -243)">
    <g id="Group_64" data-name="Group 64" transform="translate(92 55.13)">
      <rect id="Rectangle_10" data-name="Rectangle 10" width="296" height="179" transform="translate(207 210.87)" fill="#f7f7f7"/>
    </g>
    <g id="Group_62" data-name="Group 62" transform="translate(-567 -185)">
      <g id="Group_65" data-name="Group 65" transform="translate(851 428)">
        <g id="Group_67" data-name="Group 67" transform="translate(0 0)">
          <g id="Group_56" data-name="Group 56" transform="translate(0 0)">
            <circle id="Ellipse_9" data-name="Ellipse 9" cx="22.5" cy="22.5" r="22.5" transform="translate(0 20)" fill="#ffe8d1"/>
            <g id="Group_53" data-name="Group 53" transform="translate(1)">
              <g id="Group_52" data-name="Group 52" transform="translate(-1 0)">
                <ellipse id="Ellipse_1" data-name="Ellipse 1" cx="9.5" cy="9" rx="9.5" ry="9" transform="translate(0 2)" fill="#e0dfdf"/>
                <circle id="Ellipse_7" data-name="Ellipse 7" cx="9" cy="9" r="9" transform="translate(26 2)" fill="#e0dfdf"/>
                <circle id="Ellipse_8" data-name="Ellipse 8" cx="9" cy="9" r="9" transform="translate(13 0)" fill="#e0dfdf"/>
                <rect id="Rectangle_13" data-name="Rectangle 13" width="35" height="20" transform="translate(5 8)" fill="#e0dfdf"/>
              </g>
            </g>
          </g>
          <g id="Group_54" data-name="Group 54" transform="translate(12.529 35.868)">
            <g id="Group_47" data-name="Group 47" transform="translate(0)">
              <g id="Group_45" data-name="Group 45" transform="translate(0)">
                <path id="Path_66" data-name="Path 66" d="M4.4,0A4.4,4.4,0,1,1,0,4.4,4.4,4.4,0,0,1,4.4,0Z" fill="#1f1f1f"/>
                <circle id="Ellipse_6" data-name="Ellipse 6" cx="1" cy="1" r="1" transform="translate(2.471 2.132)" fill="#fff"/>
              </g>
              <g id="Group_69" data-name="Group 69" transform="translate(13)">
                <path id="Path_66-2" data-name="Path 66" d="M4.4,0A4.4,4.4,0,1,1,0,4.4,4.4,4.4,0,0,1,4.4,0Z" fill="#1f1f1f"/>
                <circle id="Ellipse_6-2" data-name="Ellipse 6" cx="1" cy="1" r="1" transform="translate(2.471 2.132)" fill="#fff"/>
              </g>
            </g>
            <text id="_" data-name=")" transform="translate(6.739 14.275) rotate(90)" fill="#fe6b6b" font-size="14" font-family="Questrial-Regular, Questrial"><tspan x="0" y="0">)</tspan></text>
          </g>
        </g>
      </g>
    </g>
    <text id="No_picture" data-name="No picture" transform="translate(387 364)" fill="#b9b9b9" font-size="26" font-family="Questrial-Regular, Questrial"><tspan x="0" y="0">No picture</tspan></text>
  </g>
</svg>
